<svg width="83" height="83" viewBox="0 0 83 83" fill="none" xmlns="http://www.w3.org/2000/svg">
<path d="M41.5 0L45.6667 16.5303L54.975 2.24858L53.5486 19.2361L66.9898 8.75067L60.1249 24.3546L76.2424 18.8017L64.6828 31.3311L81.7301 31.3124L66.7285 39.4095L82.8583 44.927L66.0404 47.7145L79.5046 58.1704L62.6929 55.346L72.0325 69.6072L57.0488 61.4771L61.2518 77.9982L49.7198 65.4434L48.3307 82.434L41.5 66.815L34.6693 82.434L33.2802 65.4434L21.7482 77.9982L25.9512 61.4771L10.9675 69.6072L20.3071 55.346L3.49541 58.1704L16.9596 47.7145L0.141743 44.927L16.2715 39.4095L1.26989 31.3124L18.3172 31.3311L6.75759 18.8017L22.8751 24.3546L16.0102 8.75067L29.4514 19.2361L28.025 2.24858L37.3333 16.5303L41.5 0Z" fill="#C2240C"/>
</svg>
