<svg width="54" height="217" viewBox="0 0 54 217" fill="none" xmlns="http://www.w3.org/2000/svg">
<path d="M25 18L29.5113 35.4887L47 40L29.5113 44.5113L25 62L20.4887 44.5113L3 40L20.4887 35.4887L25 18Z" fill="#C2240C"/>
<path d="M42.5 0L44.8582 9.1418L54 11.5L44.8582 13.8582L42.5 23L40.1418 13.8582L31 11.5L40.1418 9.1418L42.5 0Z" fill="#C2240C"/>
<path d="M4.57102 51.946L10.2351 54.3604L15.0881 50.571L12.6737 56.2351L16.4632 61.0881L10.7991 58.6737L5.94607 62.4631L8.36045 56.799L4.57102 51.946Z" fill="#C2240C"/>
<line x1="27" y1="72" x2="27" y2="217" stroke="#C2240C" stroke-width="4"/>
</svg>
